<svg xmlns="http://www.w3.org/2000/svg" xmlns:xlink="http://www.w3.org/1999/xlink" viewBox="0,0,256,256" width="48px" height="48px" fill-rule="nonzero"><g fill="none" fill-rule="nonzero" stroke="none" stroke-width="1" stroke-linecap="butt" stroke-linejoin="miter" stroke-miterlimit="10" stroke-dasharray="" stroke-dashoffset="0" font-family="none" font-weight="none" font-size="none" text-anchor="none" style="mix-blend-mode: normal"><g transform="scale(5.33333,5.33333)"><path d="M6,10c0,-2.209 1.791,-4 4,-4h28c2.209,0 4,1.791 4,4v28c0,2.209 -1.791,4 -4,4h-28c-2.209,0 -4,-1.791 -4,-4z" fill="#161d22"></path><path d="M36,19l1,-6h-6.16l0.6,-3h-14.44v3h-6l1,7l-1,15l6,-1.8v5.24l9,-1.8v-4.306l10.967,0.734z" fill="#ffffff"></path><path d="M19,12v24l5,-1v-9h4v-5h-4v-4h4l1,-5z" fill="#161d22"></path></g></g></svg>