<svg xmlns="http://www.w3.org/2000/svg" version="1.1" xmlns:xlink="http://www.w3.org/1999/xlink" xmlns:svgjs="http://svgjs.dev/svgjs" width="2000" height="2194" viewBox="0 0 2000 2194"><g transform="matrix(1,0,0,1,-0.764983385431492,-3.5387096774193196)"><svg viewBox="0 0 226 248" data-background-color="#ffffff" preserveAspectRatio="xMidYMid meet" height="2194" width="2000" xmlns="http://www.w3.org/2000/svg" xmlns:xlink="http://www.w3.org/1999/xlink"><g id="tight-bounds" transform="matrix(1,0,0,1,0.08644312255376008,0.4000000000000057)"><svg viewBox="0 0 225.8271137548925 247.2" height="247.2" width="225.8271137548925"><g><svg viewBox="0 0 395.52 432.95307801754944" height="247.2" width="225.8271137548925"><g><svg viewBox="0 0 395.52 206.9364895763282" height="206.9364895763282" width="395.52"><g id="textblocktransform"><svg viewBox="0 0 395.52 206.9364895763282" height="206.9364895763282" width="395.52" id="textblock"><g><svg viewBox="0 0 395.52 206.9364895763282" height="206.9364895763282" width="395.52"><g transform="matrix(1,0,0,1,0,0)"><svg width="395.52" viewBox="1 -38.9 74.35 38.9" height="206.9364895763282" data-palette-color="#ffffff"><path d="M34.75 0L1 0 1-8.2 3.5-8.2 3.5-30.7 1-30.7 1-38.9 34.75-38.9 34.75-23.8 23.55-23.8 23.55-30.7 17.5-30.7 17.5-22.8 21.9-22.8 21.9-17.1 17.5-17.1 17.5-8.2 23.55-8.2 23.55-16.1 34.75-16.1 34.75 0ZM64.9-38.9L73.35-8.2 75.35-8.2 75.35 0 55.75 0 55.75-8.2 58.75-8.2 57.95-12.2 51.15-12.2 50.35-8.2 53.35-8.2 53.35 0 36.25 0 36.25-8.2 38.25-8.2 46.7-38.9 64.9-38.9ZM54.3-27.45L52.25-17.5 56.85-17.5 54.8-27.45 54.3-27.45Z" opacity="1" transform="matrix(1,0,0,1,0,0)" fill="#ffffff" class="wordmark-text-0" data-fill-palette-color="primary" id="text-0"></path></svg></g></svg></g></svg></g></svg></g><g transform="matrix(1,0,0,1,13.214323199999995,255.78922828954944)"><svg viewBox="0 0 369.0913536 177.16384972799997" height="177.16384972799997" width="369.0913536"><g><svg xmlns="http://www.w3.org/2000/svg" xmlns:xlink="http://www.w3.org/1999/xlink" version="1.1" x="0" y="0" viewBox="5 28.4 90 43.199999999999996" enable-background="new 0 0 100 100" xml:space="preserve" height="177.16384972799997" width="369.0913536" class="icon-icon-0" data-fill-palette-color="accent" id="icon-0"><path d="M73.4 28.4C72.7 28.4 71.9 28.4 71.1 28.5H70.8C70.7 28.5 70.5 28.5 70.4 28.6 60.9 30 53.5 37.7 46.3 45.1 40.3 51.3 34.1 57.7 28.1 58.7 27.5 58.8 27 58.8 26.6 58.8 21.6 58.8 17.6 54.8 17.6 49.8S21.6 40.8 26.6 40.8C26.9 40.8 27.2 40.8 27.5 40.9 29.8 41.2 32.4 42.5 35.4 44.9 36.1 45.5 37.3 45.9 38.2 45.9 41.4 45.9 44.3 42.4 44.9 40.6 45.6 38.7 45 36.6 43.5 35.4 38.9 31.7 34.5 29.5 30.2 28.7 30 28.7 29.8 28.6 29.5 28.6 28.5 28.5 27.5 28.4 26.6 28.4 14.7 28.4 5 38.1 5 50S14.7 71.6 26.6 71.6C27.2 71.6 27.8 71.6 28.3 71.5 39.3 70.7 47.9 61.8 55.4 54 61.3 47.8 67 42 72.2 41.2 72.6 41 73 41 73.4 41 78.4 41 82.4 45 82.4 50S78.4 59 73.4 59C73 59 72.6 59 72 58.9 71.7 58.8 71.4 58.8 71 58.7 69 58.2 67 57.2 64.7 55.5 63.9 54.9 63 54.6 62 54.6 58.7 54.6 55.9 58.1 55.3 60.1 54.6 62.1 55.2 64.1 56.8 65.3 62.4 69.5 67.9 71.6 73.4 71.6 85.3 71.5 95 61.8 95 50S85.3 28.4 73.4 28.4" fill="#f84e45" data-fill-palette-color="accent"></path></svg></g></svg></g><g></g></svg></g><defs></defs></svg><rect width="225.8271137548925" height="247.2" fill="none" stroke="none" visibility="hidden"></rect></g></svg></g></svg>