<svg xmlns="http://www.w3.org/2000/svg" version="1.1" xmlns:xlink="http://www.w3.org/1999/xlink" xmlns:svgjs="http://svgjs.dev/svgjs" width="2000" height="1670" viewBox="0 0 2000 1670"><g transform="matrix(1,0,0,1,-1.4937872805894585,-2.6935483870968255)"><svg viewBox="0 0 297 248" data-background-color="#ffffff" preserveAspectRatio="xMidYMid meet" height="1670" width="2000" xmlns="http://www.w3.org/2000/svg" xmlns:xlink="http://www.w3.org/1999/xlink"><g id="tight-bounds" transform="matrix(1,0,0,1,0.22182741116753846,0.4000000000000057)"><svg viewBox="0 0 296.5563451776649 247.2" height="247.2" width="296.5563451776649"><g><svg viewBox="0 0 296.556345177665 247.20000000000002" height="247.2" width="296.5563451776649"><g><svg viewBox="0 0 296.556345177665 247.20000000000002" height="247.20000000000002" width="296.556345177665"><g id="textblocktransform"><svg viewBox="0 0 296.556345177665 247.20000000000002" height="247.20000000000002" width="296.556345177665" id="textblock"><g><svg viewBox="0 0 296.556345177665 247.20000000000002" height="247.20000000000002" width="296.556345177665"><g transform="matrix(1,0,0,1,0,0)"><svg width="296.556345177665" viewBox="1.25 -29.55 35.45 29.55" height="247.20000000000002" data-palette-color="#eb1e5c"><path d="M15.55 0L1.25 0 1.25-29.55 15.55-29.55 15.55-24 9.55-24 9.55-18.25 15.05-18.25 15.05-12 9.55-12 9.55-5.4 15.55-5.4 15.55 0ZM5.05-15L5.25-2.75 13.5-2.8 13.5-2.9 5.5-2.95 5.7-14.9 12.25-14.95 12.25-15.05 5.7-15.1 5.5-26.6 13.5-26.65 13.5-26.75 5.25-26.8 5.05-15ZM25.2 0L16.55 0 20.8-29.55 32.55-29.55 36.7 0 27.75 0 27.35-4.3 25.5-4.3 25.2 0ZM22.05-15.05L20.65-2.35 20.85-2.35 21-3.4Q21.1-3.95 21.15-4.6L21.15-4.6 21.3-6.15 26.45-6.2 31.55-6.15 31.95-2.35 32.2-2.35 31-14.95 29.45-27.45 26.6-27.35 24-27.45 22.05-15.05ZM31.5-6.35L26.45-6.25 21.35-6.35 22.6-15 24.2-27.25 26.6-27.3 29.25-27.25 30.4-14.95 31.5-6.35ZM26.45-23.3L25.55-8.15 27.35-8.15 26.45-23.3Z" opacity="1" transform="matrix(1,0,0,1,0,0)" fill="#eb1e5c" class="wordmark-text-0" data-fill-palette-color="primary" id="text-0"></path></svg></g></svg></g></svg></g></svg></g><g></g></svg></g><defs></defs></svg><rect width="296.5563451776649" height="247.2" fill="none" stroke="none" visibility="hidden"></rect></g></svg></g></svg>